# xmcd CD database file
#
# Track frame offsets:
#	150
#	26914
#	54214
#	94447
#	138818
#	167668
#	196410
#	222599
#
# Disc length: 3254 seconds
#
# Revision: 0
# Processed by: cddbd v1.5.2PL0 Copyright (c) Steve Scherf et al.
# Submitted via: CDex 1.51
#
DISCID=710cb408
DTITLE=east-west quartett - My Secret
DYEAR=2006
DGENRE=Jazz
TTITLE0=My Secret
TTITLE1=Don't go
TTITLE2=First visum
TTITLE3=New voyage
TTITLE4=Simple c
TTITLE5=Love and birds
TTITLE6=A dance for most of you
TTITLE7=Sinfonia g-moll
EXTD=YEAR: 2006
EXTT0=
EXTT1=
EXTT2=
EXTT3=
EXTT4=
EXTT5=
EXTT6=
EXTT7=
PLAYORDER=
